<svg width="119" height="119" viewBox="0 0 119 119" fill="none" xmlns="http://www.w3.org/2000/svg">
<path d="M13.1131 21L5.68711 38.5406H111.477L111.406 21.0003H42.6861V35.3725H38.7791V21.0003H34.4344V35.3725H30.5287V21.0003H25.9876V35.3725H22.0806V21.0003L13.1131 21ZM114.132 25.1252V35.6346H119V25.1252H114.132ZM7.26035 42.4174L12.6172 50.6923L0 96.1457L26.4846 98L32.0951 72.6709H62.242L66.0615 51.9281L111.527 50.927L111.493 42.4177H7.26009L7.26035 42.4174ZM61.0923 52.0377L58.1828 67.8411H33.1646L36.5455 52.5784L39.8092 52.5066L39.2299 61.6823L42.9448 65.1913L43.206 56.4937L49.637 52.29L61.0925 52.0377H61.0923Z" fill="white"/>
</svg>
