<svg width="135" height="135" viewBox="0 0 135 135" fill="none" xmlns="http://www.w3.org/2000/svg">
<path d="M67.5 39.375C69.0937 39.375 70.4306 38.835 71.5106 37.755C72.5906 36.675 73.1287 35.34 73.125 33.75C73.1212 32.16 72.5812 30.825 71.505 29.745C70.4287 28.665 69.0937 28.125 67.5 28.125C65.9062 28.125 64.5712 28.665 63.495 29.745C62.4187 30.825 61.8787 32.16 61.875 33.75C61.8712 35.34 62.4112 36.6769 63.495 37.7606C64.5787 38.8444 65.9137 39.3825 67.5 39.375ZM83.3906 39.375H93.2344C96.0469 39.375 98.4844 40.3125 100.547 42.1875C102.609 44.0625 103.875 46.3594 104.344 49.0781L112.359 105.328C112.828 108.703 111.962 111.681 109.761 114.261C107.559 116.841 104.722 118.129 101.25 118.125H33.75C30.2812 118.125 27.4444 116.837 25.2394 114.261C23.0344 111.684 22.1681 108.707 22.6406 105.328L30.6562 49.0781C31.125 46.3594 32.3906 44.0625 34.4531 42.1875C36.5156 40.3125 38.9531 39.375 41.7656 39.375H51.6094C51.3281 38.4375 51.0937 37.5244 50.9062 36.6356C50.7187 35.7469 50.625 34.785 50.625 33.75C50.625 29.0625 52.2656 25.0781 55.5469 21.7969C58.8281 18.5156 62.8125 16.875 67.5 16.875C72.1875 16.875 76.1719 18.5156 79.4531 21.7969C82.7344 25.0781 84.375 29.0625 84.375 33.75C84.375 34.7813 84.2812 35.7431 84.0937 36.6356C83.9062 37.5281 83.6719 38.4413 83.3906 39.375Z" fill="white"/>
</svg>
