<svg width="184" height="184" viewBox="0 0 184 184" fill="none" xmlns="http://www.w3.org/2000/svg">
<path d="M177.833 112.292L112.292 177.833C110.458 179.667 108.396 181.042 106.104 181.958C103.812 182.875 101.521 183.333 99.2292 183.333C96.9375 183.333 94.6458 182.875 92.3542 181.958C90.0625 181.042 88 179.667 86.1667 177.833L5.27083 96.9375C3.59028 95.2569 2.29167 93.3105 1.375 91.0983C0.458334 88.8861 0 86.5547 0 84.1042V18.3333C0 13.2917 1.79667 8.97722 5.39 5.39C8.98333 1.80278 13.2978 0.00611111 18.3333 0H84.1042C86.5486 0 88.9167 0.498057 91.2083 1.49417C93.5 2.49028 95.4861 3.82555 97.1667 5.5L177.833 86.3958C179.667 88.2292 181.005 90.2917 181.848 92.5833C182.692 94.875 183.11 97.1667 183.104 99.4583C183.098 101.75 182.679 104.005 181.848 106.223C181.017 108.442 179.679 110.464 177.833 112.292ZM41.25 55C45.0694 55 48.3175 53.6647 50.9942 50.9942C53.6708 48.3236 55.0061 45.0756 55 41.25C54.9939 37.4244 53.6586 34.1794 50.9942 31.515C48.3297 28.8506 45.0817 27.5122 41.25 27.5C37.4183 27.4878 34.1733 28.8261 31.515 31.515C28.8567 34.2039 27.5183 37.4489 27.5 41.25C27.4817 45.0511 28.82 48.2992 31.515 50.9942C34.21 53.6892 37.455 55.0244 41.25 55Z" fill="white"/>
</svg>
