<svg width="100" height="100" viewBox="0 0 100 100" fill="none" xmlns="http://www.w3.org/2000/svg">
<rect width="100" height="100" rx="5" fill="#0B0000"/>
<path fill-rule="evenodd" clip-rule="evenodd" d="M50.0814 12.5C40.6709 12.5 32.098 15.6083 27.0251 18.1479C26.5668 18.3771 26.139 18.6007 25.7418 18.8187C24.9543 19.2479 24.2834 19.6479 23.7501 20L29.5209 28.4958L32.2376 29.5771C42.8543 34.9333 57.0918 34.9333 67.7105 29.5771L70.7939 27.9771L76.2501 20C75.1186 19.2648 73.9435 18.599 72.7314 18.0062C67.6834 15.4937 59.3147 12.5 50.0834 12.5M36.6626 22.1167C34.6196 21.7322 32.6014 21.2257 30.6189 20.6C35.3709 18.4896 42.4522 16.25 50.0834 16.25C55.3689 16.25 60.3668 17.325 64.5001 18.6875C59.6564 19.3688 54.4876 20.525 49.5626 21.9479C45.6876 23.0687 41.1584 22.9479 36.6626 22.1167ZM69.9126 32.6667L69.4001 32.925C57.7209 38.8167 42.2293 38.8167 30.5501 32.925L30.0647 32.6792C12.5168 51.9312 -0.879061 87.4938 50.0814 87.4938C101.042 87.4938 87.3209 51.2708 69.9126 32.6667ZM47.9168 50C46.8117 50 45.7519 50.439 44.9705 51.2204C44.1891 52.0018 43.7501 53.0616 43.7501 54.1667C43.7501 55.2717 44.1891 56.3315 44.9705 57.1129C45.7519 57.8943 46.8117 58.3333 47.9168 58.3333V50ZM52.0834 45.8333V43.75H47.9168V45.8333C45.7066 45.8333 43.587 46.7113 42.0242 48.2741C40.4614 49.8369 39.5834 51.9565 39.5834 54.1667C39.5834 56.3768 40.4614 58.4964 42.0242 60.0592C43.587 61.622 45.7066 62.5 47.9168 62.5V70.8333C46.1043 70.8333 44.5605 69.6771 43.9855 68.0562C43.9002 67.7911 43.7626 67.5457 43.5808 67.3346C43.399 67.1236 43.1767 66.9511 42.9271 66.8275C42.6775 66.7038 42.4056 66.6315 42.1276 66.6147C41.8495 66.598 41.5709 66.6371 41.3083 66.7299C41.0456 66.8227 40.8042 66.9673 40.5984 67.155C40.3926 67.3427 40.2265 67.5698 40.11 67.8228C39.9935 68.0758 39.9289 68.3496 39.92 68.628C39.9112 68.9065 39.9582 69.1838 40.0584 69.4437C40.6328 71.0689 41.697 72.4759 43.1044 73.471C44.5118 74.4661 46.1931 75.0003 47.9168 75V77.0833H52.0834V75C54.2936 75 56.4132 74.122 57.976 72.5592C59.5388 70.9964 60.4168 68.8768 60.4168 66.6667C60.4168 64.4565 59.5388 62.3369 57.976 60.7741C56.4132 59.2113 54.2936 58.3333 52.0834 58.3333V50C53.8959 50 55.4397 51.1562 56.0147 52.7771C56.1 53.0423 56.2376 53.2876 56.4194 53.4987C56.6012 53.7098 56.8235 53.8822 57.0731 54.0059C57.3227 54.1295 57.5946 54.2019 57.8726 54.2186C58.1507 54.2354 58.4293 54.1962 58.6919 54.1034C58.9546 54.0106 59.196 53.8661 59.4018 53.6784C59.6076 53.4906 59.7737 53.2636 59.8902 53.0105C60.0067 52.7575 60.0713 52.4837 60.0802 52.2053C60.0891 51.9269 60.042 51.6495 59.9418 51.3896C59.3674 49.7645 58.3032 48.3574 56.8958 47.3624C55.4884 46.3673 53.8071 45.8331 52.0834 45.8333ZM52.0834 62.5V70.8333C53.1885 70.8333 54.2483 70.3943 55.0297 69.6129C55.8111 68.8315 56.2501 67.7717 56.2501 66.6667C56.2501 65.5616 55.8111 64.5018 55.0297 63.7204C54.2483 62.939 53.1885 62.5 52.0834 62.5Z" fill="white"/>
</svg>
