<svg width="100" height="100" viewBox="0 0 100 100" fill="none" xmlns="http://www.w3.org/2000/svg">
<path d="M3.61914 3.84536V11.92C17.69 14.5645 30.1902 18.7141 43.6828 24.4018V24.4081C46.1881 25.2987 47.9766 26.7725 48.9258 28.5459C49.8906 30.3487 49.9547 32.3956 49.2676 34.1247C48.0514 37.1852 44.4225 39.1194 40.3262 38.104C38.3057 41.9959 35.6523 45.8428 32.0436 49.6151C34.1884 50.9652 36.4188 52.1743 38.7207 53.2346H60.0586C64.007 42.6104 66.4994 31.8102 67.5477 21.8016C47.134 18.829 27.7781 12.6858 9.38105 3.84497H3.61934L3.61914 3.84536ZM65.5518 48.5719C65.0446 50.1499 64.5094 51.7187 63.9463 53.2776H69.5986V56.928H38.0186V56.885H37.9027L37.5428 56.7202C34.2986 55.2528 31.1742 53.4916 28.1432 51.4346L27.5268 51.0196C25.3895 51.8868 23.6781 52.8575 22.534 53.8208C21.1623 54.976 20.6662 55.9821 20.6662 56.8665C20.6662 57.7512 21.1623 58.7629 22.534 59.9182C23.9057 61.0737 26.0824 62.2424 28.8451 63.2268C34.3705 65.1946 42.2195 66.4612 50.8971 66.4612C59.5744 66.4612 67.4299 65.1946 72.9551 63.2268C75.718 62.2424 77.8945 61.0737 79.2664 59.9182C80.6381 58.7633 81.134 57.7512 81.134 56.8667C81.134 55.9825 80.6379 54.976 79.2664 53.8209C77.8945 52.6659 75.718 51.4967 72.9553 50.5129C70.81 49.7487 68.3119 49.0917 65.552 48.5719H65.5518ZM19.8428 62.4084C18.8576 78.5028 12.0053 82.5225 5.88965 86.8411C9.90723 87.727 14.4209 88.4875 18.9639 88.3182C23.8865 86.3952 29.0113 81.2307 32.7148 77.0936C31.1223 80.9557 28.8867 84.7155 25.9643 88.4952L20.8926 96.1973C29.5914 94.7545 37.7695 92.8311 46.1367 87.1399C44.5855 83.0709 43.4066 79.1081 42.5781 75.1893C45.8625 80.4256 49.5074 85.495 53.7354 90.161C53.7412 90.1674 53.7479 90.1727 53.7537 90.1793L59.9973 96.1666C64.9145 90.0284 68.5418 83.3666 71.4354 76.6598C71.4055 79.7604 71.1521 82.9684 70.4588 86.3461C79.0473 88.2844 87.6332 87.0463 96.2217 86.8403C87.4658 83.2784 82.4025 76.1723 81.5061 62.7987C79.6447 64.3352 77.1623 65.6008 74.1818 66.6626C68.1037 68.8274 59.926 70.111 50.8971 70.111C41.8684 70.111 33.6963 68.8272 27.6182 66.6622C24.5791 65.5797 22.057 64.2844 20.1842 62.7071C20.067 62.6086 19.9547 62.5098 19.8424 62.4083L19.8428 62.4084Z" fill="white"/>
</svg>
