# Blender 4.0.2
# www.blender.org
mtllib fire_slash.mtl
o BezierCurve
v 2.243407 -0.004555 -2.928161
v 2.243407 0.004555 -2.928161
v 1.979206 -1.092680 -2.133254
v 1.979206 1.092680 -2.133253
v 1.654378 -1.092680 -1.439495
v 1.654378 1.092680 -1.439495
v 1.281157 -1.092680 -1.142132
v 1.281157 1.092680 -1.142131
v 0.871778 -1.092680 -0.928809
v 0.871778 1.092680 -0.928809
v 0.438476 -1.092680 -0.676991
v 0.438476 1.092680 -0.676990
v -0.006514 -1.092680 -0.532172
v -0.006514 1.092680 -0.532172
v -0.450957 -1.092680 -0.673354
v -0.450957 1.092680 -0.673354
v -0.882618 -1.092680 -0.922160
v -0.882618 1.092680 -0.922160
v -1.289263 -1.092680 -1.133716
v -1.289263 1.092680 -1.133716
v -1.658655 -1.092680 -1.431184
v -1.658655 1.092680 -1.431183
v -1.978561 -1.092680 -2.127540
v -1.978561 1.092680 -2.127540
v -2.236745 -0.003480 -2.928162
v -2.236745 0.003480 -2.928162
v 2.243406 0.000000 0.287141
v 1.979206 0.000000 1.053187
v -0.006514 0.000000 2.263503
v -1.978562 0.000000 1.058901
v 0.438476 0.000000 2.140944
v -1.658656 0.000000 1.442591
v 1.654377 0.000000 1.434279
v -0.450957 0.000000 2.144580
v -2.236745 0.000000 0.287139
v 1.281156 0.000000 1.731643
v -0.882618 0.000000 1.951614
v 0.871778 0.000000 1.944965
v -1.289263 0.000000 1.740058
vn 0.9299 -0.3625 0.0621
vn 0.4894 -0.8203 0.2958
vn 0.3311 -0.8834 0.3316
vn 0.4335 -0.8462 0.3099
vn 0.2112 -0.9136 0.3474
vn 0.2421 -0.9069 0.3448
vn 0.1821 -0.9184 0.3514
vn 0.1821 -0.9187 0.3505
vn 0.1374 -0.9237 0.3577
vn 0.1540 -0.9218 0.3558
vn 0.0011 -0.9319 0.3628
vn 0.0016 -0.9319 0.3628
vn -0.1352 -0.9240 0.3578
vn -0.1517 -0.9221 0.3560
vn -0.1809 -0.9186 0.3514
vn -0.1813 -0.9188 0.3506
vn -0.2118 -0.9135 0.3473
vn -0.2438 -0.9065 0.3447
vn -0.3346 -0.8822 0.3313
vn -0.4401 -0.8432 0.3088
vn -0.4969 -0.8163 0.2944
vn -0.9330 -0.3547 0.0607
vn -0.9330 0.3547 0.0607
vn -0.4401 0.8432 0.3088
vn -0.4969 0.8163 0.2944
vn -0.3346 0.8822 0.3313
vn -0.2438 0.9065 0.3447
vn -0.2118 0.9135 0.3473
vn -0.1813 0.9188 0.3506
vn -0.1809 0.9186 0.3514
vn -0.1517 0.9221 0.3560
vn -0.1352 0.9240 0.3578
vn 0.0016 0.9319 0.3628
vn 0.0011 0.9319 0.3628
vn 0.1540 0.9218 0.3558
vn 0.1374 0.9237 0.3577
vn 0.1821 0.9187 0.3505
vn 0.1821 0.9184 0.3514
vn 0.2421 0.9069 0.3448
vn 0.2112 0.9136 0.3474
vn 0.4335 0.8462 0.3099
vn 0.3311 0.8834 0.3316
vn 0.4894 0.8203 0.2958
vn 0.9299 0.3625 0.0621
vt 1.000000 1.000000
vt 0.916667 1.000000
vt 0.916667 0.000000
vt 1.000000 0.000000
vt 0.833333 1.000000
vt 0.833333 0.000000
vt 0.750000 1.000000
vt 0.750000 0.000000
vt 0.666667 1.000000
vt 0.666667 0.000000
vt 0.583333 1.000000
vt 0.583333 0.000000
vt 0.500000 1.000000
vt 0.500000 0.000000
vt 0.416667 1.000000
vt 0.416667 0.000000
vt 0.333333 1.000000
vt 0.333333 0.000000
vt 0.250000 1.000000
vt 0.250000 0.000000
vt 0.166667 1.000000
vt 0.166667 0.000000
vt 0.083333 1.000000
vt 0.083333 0.000000
vt 0.000000 1.000000
vt 0.000000 0.000000
vt 0.083333 0.000000
vt 0.000000 0.000000
vt 0.166667 0.000000
vt 0.416667 0.000000
vt 0.583333 0.000000
vt 0.833333 0.000000
vt 0.916667 0.000000
vt 1.000000 0.000000
s 1
f 27/1/1 28/2/1 3/3/1 1/4/1
f 28/2/2 33/5/3 5/6/4 3/3/2
f 33/5/3 36/7/5 7/8/6 5/6/4
f 36/7/5 38/9/7 9/10/8 7/8/6
f 38/9/7 31/11/9 11/12/10 9/10/8
f 31/11/9 29/13/11 13/14/12 11/12/10
f 29/13/11 34/15/13 15/16/14 13/14/12
f 34/15/13 37/17/15 17/18/16 15/16/14
f 37/17/15 39/19/17 19/20/18 17/18/16
f 39/19/17 32/21/19 21/22/20 19/20/18
f 32/21/19 30/23/21 23/24/21 21/22/20
f 30/23/22 35/25/22 25/26/22 23/24/22
f 24/27/23 26/28/23 35/25/23 30/23/23
f 22/29/24 24/27/25 30/23/25 32/21/26
f 20/20/27 22/29/24 32/21/26 39/19/28
f 18/18/29 20/20/27 39/19/28 37/17/30
f 16/30/31 18/18/29 37/17/30 34/15/32
f 14/14/33 16/30/31 34/15/32 29/13/34
f 12/31/35 14/14/33 29/13/34 31/11/36
f 10/10/37 12/31/35 31/11/36 38/9/38
f 8/8/39 10/10/37 38/9/38 36/7/40
f 6/32/41 8/8/39 36/7/40 33/5/42
f 4/33/43 6/32/41 33/5/42 28/2/43
f 2/34/44 4/33/44 28/2/44 27/1/44
